<svg width="316" height="255" viewBox="0 0 316 255" fill="none" xmlns="http://www.w3.org/2000/svg">
<path d="M0 219H268" stroke="black" stroke-width="5"/>
<path d="M20 220V0.5" stroke="black"/>
<path d="M20 134H0" stroke="black"/>
<path d="M20 35H0" stroke="black"/>
<path d="M65 139V217H110V139H65Z" fill="#C0BDBD" stroke="#CBC8C8"/>
<path d="M169 89V217H221V89H169Z" fill="#E42929" stroke="#EF1717"/>
<path d="M73.8736 125.763V124.676L78.6676 117.091H79.456V118.774H78.9233L75.3011 124.506V124.591H81.7571V125.763H73.8736ZM79.0085 128V125.433V124.926V117.091H80.2656V128H79.0085ZM87.3115 128.149C86.509 128.149 85.8254 127.931 85.2607 127.494C84.6961 127.054 84.2646 126.416 83.9664 125.582C83.6681 124.744 83.5189 123.732 83.5189 122.545C83.5189 121.366 83.6681 120.36 83.9664 119.525C84.2682 118.687 84.7014 118.048 85.2661 117.608C85.8343 117.164 86.5161 116.942 87.3115 116.942C88.107 116.942 88.787 117.164 89.3517 117.608C89.9198 118.048 90.3531 118.687 90.6514 119.525C90.9532 120.36 91.1041 121.366 91.1041 122.545C91.1041 123.732 90.955 124.744 90.6567 125.582C90.3584 126.416 89.9269 127.054 89.3623 127.494C88.7977 127.931 88.1141 128.149 87.3115 128.149ZM87.3115 126.977C88.107 126.977 88.7249 126.594 89.1652 125.827C89.6056 125.06 89.8257 123.966 89.8257 122.545C89.8257 121.601 89.7245 120.797 89.5221 120.132C89.3232 119.468 89.0356 118.962 88.6592 118.614C88.2863 118.266 87.8371 118.092 87.3115 118.092C86.5232 118.092 85.907 118.481 85.4632 119.259C85.0193 120.033 84.7973 121.129 84.7973 122.545C84.7973 123.49 84.8968 124.293 85.0956 124.953C85.2945 125.614 85.5803 126.116 85.9532 126.461C86.3296 126.805 86.7824 126.977 87.3115 126.977ZM98.6894 125.955V125.379C98.6894 124.982 98.771 124.618 98.9344 124.287C99.1013 123.953 99.3428 123.687 99.6588 123.488C99.9784 123.286 100.366 123.185 100.82 123.185C101.282 123.185 101.669 123.286 101.981 123.488C102.294 123.687 102.53 123.953 102.69 124.287C102.85 124.618 102.929 124.982 102.929 125.379V125.955C102.929 126.352 102.848 126.718 102.684 127.052C102.525 127.382 102.287 127.648 101.971 127.851C101.658 128.05 101.275 128.149 100.82 128.149C100.358 128.149 99.9695 128.05 99.6535 127.851C99.3374 127.648 99.0977 127.382 98.9344 127.052C98.771 126.718 98.6894 126.352 98.6894 125.955ZM99.776 125.379V125.955C99.776 126.285 99.8541 126.581 100.01 126.844C100.167 127.103 100.437 127.233 100.82 127.233C101.193 127.233 101.456 127.103 101.608 126.844C101.765 126.581 101.843 126.285 101.843 125.955V125.379C101.843 125.049 101.768 124.754 101.619 124.495C101.47 124.232 101.204 124.101 100.82 124.101C100.447 124.101 100.179 124.232 100.016 124.495C99.8559 124.754 99.776 125.049 99.776 125.379ZM93.2561 119.712V119.136C93.2561 118.739 93.3378 118.375 93.5012 118.044C93.6681 117.711 93.9095 117.444 94.2256 117.245C94.5452 117.043 94.9323 116.942 95.3868 116.942C95.8485 116.942 96.2355 117.043 96.548 117.245C96.8605 117.444 97.0967 117.711 97.2565 118.044C97.4163 118.375 97.4962 118.739 97.4962 119.136V119.712C97.4962 120.109 97.4145 120.475 97.2512 120.809C97.0914 121.139 96.8534 121.406 96.5374 121.608C96.2249 121.807 95.8414 121.906 95.3868 121.906C94.9252 121.906 94.5363 121.807 94.2203 121.608C93.9042 121.406 93.6645 121.139 93.5012 120.809C93.3378 120.475 93.2561 120.109 93.2561 119.712ZM94.3428 119.136V119.712C94.3428 120.042 94.4209 120.338 94.5771 120.601C94.7334 120.86 95.0033 120.99 95.3868 120.99C95.7597 120.99 96.0225 120.86 96.1752 120.601C96.3314 120.338 96.4095 120.042 96.4095 119.712V119.136C96.4095 118.806 96.335 118.511 96.1858 118.252C96.0367 117.989 95.7703 117.858 95.3868 117.858C95.0139 117.858 94.7458 117.989 94.5825 118.252C94.4227 118.511 94.3428 118.806 94.3428 119.136ZM93.661 128L101.161 117.091H102.375L94.8754 128H93.661Z" fill="black"/>
<path d="M185.624 70.1491C184.892 70.1491 184.246 70.0195 183.685 69.7603C183.127 69.4975 182.692 69.1371 182.38 68.679C182.067 68.2173 181.913 67.6918 181.916 67.1023C181.913 66.6406 182.003 66.2145 182.188 65.8239C182.373 65.4297 182.625 65.1012 182.944 64.8384C183.267 64.5721 183.628 64.4034 184.026 64.3324V64.2685C183.504 64.1335 183.088 63.8406 182.779 63.3896C182.47 62.935 182.317 62.4183 182.321 61.8395C182.317 61.2855 182.458 60.7901 182.742 60.3533C183.026 59.9165 183.417 59.5721 183.914 59.32C184.414 59.0678 184.984 58.9418 185.624 58.9418C186.256 58.9418 186.82 59.0678 187.317 59.32C187.815 59.5721 188.205 59.9165 188.489 60.3533C188.777 60.7901 188.923 61.2855 188.926 61.8395C188.923 62.4183 188.765 62.935 188.452 63.3896C188.143 63.8406 187.733 64.1335 187.222 64.2685V64.3324C187.616 64.4034 187.971 64.5721 188.287 64.8384C188.603 65.1012 188.855 65.4297 189.043 65.8239C189.232 66.2145 189.327 66.6406 189.331 67.1023C189.327 67.6918 189.168 68.2173 188.852 68.679C188.539 69.1371 188.104 69.4975 187.547 69.7603C186.993 70.0195 186.352 70.1491 185.624 70.1491ZM185.624 68.9773C186.117 68.9773 186.543 68.8974 186.902 68.7376C187.261 68.5778 187.538 68.3523 187.733 68.0611C187.928 67.7699 188.028 67.429 188.031 67.0384C188.028 66.6264 187.921 66.2624 187.712 65.9464C187.502 65.6303 187.216 65.3817 186.854 65.2006C186.495 65.0195 186.085 64.929 185.624 64.929C185.158 64.929 184.743 65.0195 184.377 65.2006C184.015 65.3817 183.729 65.6303 183.52 65.9464C183.314 66.2624 183.212 66.6264 183.216 67.0384C183.212 67.429 183.306 67.7699 183.498 68.0611C183.694 68.3523 183.972 68.5778 184.335 68.7376C184.697 68.8974 185.126 68.9773 185.624 68.9773ZM185.624 63.7997C186.014 63.7997 186.36 63.7216 186.662 63.5653C186.968 63.4091 187.207 63.1907 187.381 62.9102C187.555 62.6296 187.644 62.3011 187.648 61.9247C187.644 61.5554 187.557 61.234 187.387 60.9606C187.216 60.6836 186.98 60.4705 186.678 60.3214C186.376 60.1687 186.025 60.0923 185.624 60.0923C185.215 60.0923 184.858 60.1687 184.553 60.3214C184.248 60.4705 184.011 60.6836 183.844 60.9606C183.678 61.234 183.596 61.5554 183.599 61.9247C183.596 62.3011 183.679 62.6296 183.85 62.9102C184.024 63.1907 184.263 63.4091 184.569 63.5653C184.874 63.7216 185.226 63.7997 185.624 63.7997ZM194.931 70.1491C194.128 70.1491 193.445 69.9308 192.88 69.494C192.315 69.0536 191.884 68.4162 191.585 67.5817C191.287 66.7436 191.138 65.7315 191.138 64.5455C191.138 63.3665 191.287 62.3597 191.585 61.5252C191.887 60.6871 192.321 60.0479 192.885 59.6076C193.453 59.1637 194.135 58.9418 194.931 58.9418C195.726 58.9418 196.406 59.1637 196.971 59.6076C197.539 60.0479 197.972 60.6871 198.271 61.5252C198.572 62.3597 198.723 63.3665 198.723 64.5455C198.723 65.7315 198.574 66.7436 198.276 67.5817C197.978 68.4162 197.546 69.0536 196.981 69.494C196.417 69.9308 195.733 70.1491 194.931 70.1491ZM194.931 68.9773C195.726 68.9773 196.344 68.5937 196.784 67.8267C197.225 67.0597 197.445 65.9659 197.445 64.5455C197.445 63.6009 197.344 62.7965 197.141 62.1325C196.942 61.4684 196.655 60.9624 196.278 60.6143C195.905 60.2663 195.456 60.0923 194.931 60.0923C194.142 60.0923 193.526 60.4812 193.082 61.2589C192.638 62.033 192.416 63.1286 192.416 64.5455C192.416 65.4901 192.516 66.2926 192.715 66.9531C192.914 67.6136 193.199 68.1161 193.572 68.4606C193.949 68.805 194.402 68.9773 194.931 68.9773ZM206.309 67.9545V67.3793C206.309 66.9815 206.39 66.6175 206.554 66.2873C206.72 65.9535 206.962 65.6871 207.278 65.4883C207.598 65.2859 207.985 65.1847 208.439 65.1847C208.901 65.1847 209.288 65.2859 209.6 65.4883C209.913 65.6871 210.149 65.9535 210.309 66.2873C210.469 66.6175 210.549 66.9815 210.549 67.3793V67.9545C210.549 68.3523 210.467 68.718 210.304 69.0518C210.144 69.3821 209.906 69.6484 209.59 69.8509C209.277 70.0497 208.894 70.1491 208.439 70.1491C207.978 70.1491 207.589 70.0497 207.273 69.8509C206.957 69.6484 206.717 69.3821 206.554 69.0518C206.39 68.718 206.309 68.3523 206.309 67.9545ZM207.395 67.3793V67.9545C207.395 68.2848 207.473 68.5813 207.63 68.8441C207.786 69.1033 208.056 69.233 208.439 69.233C208.812 69.233 209.075 69.1033 209.228 68.8441C209.384 68.5813 209.462 68.2848 209.462 67.9545V67.3793C209.462 67.049 209.387 66.7543 209.238 66.495C209.089 66.2322 208.823 66.1009 208.439 66.1009C208.066 66.1009 207.798 66.2322 207.635 66.495C207.475 66.7543 207.395 67.049 207.395 67.3793ZM200.875 61.7116V61.1364C200.875 60.7386 200.957 60.3746 201.12 60.0444C201.287 59.7106 201.529 59.4442 201.845 59.2454C202.164 59.043 202.551 58.9418 203.006 58.9418C203.468 58.9418 203.855 59.043 204.167 59.2454C204.48 59.4442 204.716 59.7106 204.876 60.0444C205.035 60.3746 205.115 60.7386 205.115 61.1364V61.7116C205.115 62.1094 205.034 62.4751 204.87 62.8089C204.71 63.1392 204.473 63.4055 204.157 63.608C203.844 63.8068 203.46 63.9062 203.006 63.9062C202.544 63.9062 202.155 63.8068 201.839 63.608C201.523 63.4055 201.284 63.1392 201.12 62.8089C200.957 62.4751 200.875 62.1094 200.875 61.7116ZM201.962 61.1364V61.7116C201.962 62.0419 202.04 62.3384 202.196 62.6012C202.353 62.8604 202.622 62.9901 203.006 62.9901C203.379 62.9901 203.642 62.8604 203.794 62.6012C203.951 62.3384 204.029 62.0419 204.029 61.7116V61.1364C204.029 60.8061 203.954 60.5114 203.805 60.2521C203.656 59.9893 203.389 59.858 203.006 59.858C202.633 59.858 202.365 59.9893 202.202 60.2521C202.042 60.5114 201.962 60.8061 201.962 61.1364ZM201.28 70L208.78 59.0909H209.995L202.495 70H201.28Z" fill="black"/>
<path d="M164.642 239L162.256 230.273H163.33L165.153 237.381H165.239L167.097 230.273H168.29L170.148 237.381H170.233L172.057 230.273H173.131L170.744 239H169.653L167.727 232.045H167.659L165.733 239H164.642ZM176.361 239.136C175.77 239.136 175.251 238.996 174.805 238.714C174.362 238.433 174.016 238.04 173.766 237.534C173.518 237.028 173.395 236.437 173.395 235.761C173.395 235.08 173.518 234.484 173.766 233.976C174.016 233.467 174.362 233.072 174.805 232.791C175.251 232.51 175.77 232.369 176.361 232.369C176.952 232.369 177.469 232.51 177.912 232.791C178.358 233.072 178.705 233.467 178.952 233.976C179.202 234.484 179.327 235.08 179.327 235.761C179.327 236.437 179.202 237.028 178.952 237.534C178.705 238.04 178.358 238.433 177.912 238.714C177.469 238.996 176.952 239.136 176.361 239.136ZM176.361 238.233C176.81 238.233 177.179 238.118 177.469 237.888C177.759 237.658 177.973 237.355 178.112 236.98C178.251 236.605 178.321 236.199 178.321 235.761C178.321 235.324 178.251 234.916 178.112 234.538C177.973 234.161 177.759 233.855 177.469 233.622C177.179 233.389 176.81 233.273 176.361 233.273C175.912 233.273 175.543 233.389 175.253 233.622C174.963 233.855 174.749 234.161 174.609 234.538C174.47 234.916 174.401 235.324 174.401 235.761C174.401 236.199 174.47 236.605 174.609 236.98C174.749 237.355 174.963 237.658 175.253 237.888C175.543 238.118 175.912 238.233 176.361 238.233ZM180.862 239V232.455H181.833V233.443H181.902C182.021 233.119 182.237 232.857 182.549 232.655C182.862 232.453 183.214 232.352 183.606 232.352C183.68 232.352 183.772 232.354 183.883 232.357C183.994 232.359 184.078 232.364 184.135 232.369V233.392C184.1 233.384 184.022 233.371 183.9 233.354C183.781 233.334 183.654 233.324 183.521 233.324C183.203 233.324 182.919 233.391 182.669 233.524C182.422 233.655 182.225 233.837 182.081 234.07C181.939 234.3 181.868 234.562 181.868 234.858V239H180.862ZM186.332 230.273V239H185.327V230.273H186.332ZM190.646 239.136C190.1 239.136 189.619 238.999 189.201 238.723C188.784 238.445 188.457 238.053 188.221 237.547C187.985 237.038 187.868 236.438 187.868 235.744C187.868 235.057 187.985 234.46 188.221 233.955C188.457 233.449 188.785 233.058 189.206 232.783C189.626 232.507 190.112 232.369 190.663 232.369C191.089 232.369 191.426 232.44 191.673 232.582C191.923 232.722 192.113 232.881 192.244 233.06C192.377 233.236 192.481 233.381 192.555 233.494H192.64V230.273H193.646V239H192.674V237.994H192.555C192.481 238.114 192.376 238.264 192.24 238.446C192.103 238.625 191.909 238.786 191.656 238.928C191.403 239.067 191.066 239.136 190.646 239.136ZM190.782 238.233C191.186 238.233 191.527 238.128 191.805 237.918C192.083 237.705 192.295 237.411 192.44 237.036C192.585 236.658 192.657 236.222 192.657 235.727C192.657 235.239 192.586 234.811 192.444 234.445C192.302 234.075 192.092 233.788 191.814 233.584C191.535 233.376 191.191 233.273 190.782 233.273C190.356 233.273 190.001 233.382 189.717 233.601C189.436 233.817 189.224 234.111 189.082 234.483C188.943 234.852 188.873 235.267 188.873 235.727C188.873 236.193 188.944 236.616 189.086 236.997C189.231 237.375 189.444 237.676 189.725 237.901C190.01 238.122 190.362 238.233 190.782 238.233ZM199.377 234.79V235.727H195.559V234.79H199.377ZM202.63 239L200.636 232.455H201.692L203.107 237.466H203.175L204.573 232.455H205.647L207.028 237.449H207.096L208.511 232.455H209.567L207.573 239H206.585L205.153 233.972H205.05L203.619 239H202.63ZM210.897 239V232.455H211.903V239H210.897ZM211.408 231.364C211.212 231.364 211.043 231.297 210.901 231.163C210.762 231.03 210.692 230.869 210.692 230.682C210.692 230.494 210.762 230.334 210.901 230.2C211.043 230.067 211.212 230 211.408 230C211.604 230 211.772 230.067 211.911 230.2C212.053 230.334 212.124 230.494 212.124 230.682C212.124 230.869 212.053 231.03 211.911 231.163C211.772 231.297 211.604 231.364 211.408 231.364ZM216.216 239.136C215.671 239.136 215.189 238.999 214.772 238.723C214.354 238.445 214.027 238.053 213.792 237.547C213.556 237.038 213.438 236.438 213.438 235.744C213.438 235.057 213.556 234.46 213.792 233.955C214.027 233.449 214.355 233.058 214.776 232.783C215.196 232.507 215.682 232.369 216.233 232.369C216.659 232.369 216.996 232.44 217.243 232.582C217.493 232.722 217.684 232.881 217.814 233.06C217.948 233.236 218.051 233.381 218.125 233.494H218.211V230.273H219.216V239H218.245V237.994H218.125C218.051 238.114 217.946 238.264 217.81 238.446C217.674 238.625 217.479 238.786 217.226 238.928C216.973 239.067 216.637 239.136 216.216 239.136ZM216.353 238.233C216.756 238.233 217.097 238.128 217.375 237.918C217.654 237.705 217.865 237.411 218.01 237.036C218.155 236.658 218.228 236.222 218.228 235.727C218.228 235.239 218.157 234.811 218.015 234.445C217.873 234.075 217.662 233.788 217.384 233.584C217.105 233.376 216.762 233.273 216.353 233.273C215.926 233.273 215.571 233.382 215.287 233.601C215.006 233.817 214.794 234.111 214.652 234.483C214.513 234.852 214.444 235.267 214.444 235.727C214.444 236.193 214.515 236.616 214.657 236.997C214.801 237.375 215.015 237.676 215.296 237.901C215.58 238.122 215.932 238.233 216.353 238.233ZM223.942 239.136C223.311 239.136 222.767 238.997 222.31 238.719C221.855 238.438 221.505 238.045 221.257 237.543C221.013 237.037 220.891 236.449 220.891 235.778C220.891 235.108 221.013 234.517 221.257 234.006C221.505 233.491 221.848 233.091 222.289 232.804C222.732 232.514 223.249 232.369 223.84 232.369C224.181 232.369 224.517 232.426 224.85 232.54C225.182 232.653 225.485 232.838 225.757 233.094C226.03 233.347 226.248 233.682 226.409 234.099C226.571 234.517 226.652 235.031 226.652 235.642V236.068H221.607V235.199H225.63C225.63 234.83 225.556 234.5 225.408 234.21C225.263 233.92 225.056 233.692 224.786 233.524C224.519 233.357 224.203 233.273 223.84 233.273C223.439 233.273 223.093 233.372 222.8 233.571C222.51 233.767 222.287 234.023 222.131 234.338C221.975 234.653 221.897 234.991 221.897 235.352V235.932C221.897 236.426 221.982 236.845 222.152 237.189C222.326 237.53 222.566 237.79 222.873 237.969C223.179 238.145 223.536 238.233 223.942 238.233C224.206 238.233 224.445 238.196 224.658 238.122C224.874 238.045 225.06 237.932 225.216 237.781C225.373 237.628 225.493 237.437 225.578 237.21L226.55 237.483C226.448 237.812 226.276 238.102 226.034 238.352C225.793 238.599 225.495 238.793 225.14 238.932C224.784 239.068 224.385 239.136 223.942 239.136Z" fill="black"/>
<path d="M59.4205 234.636C59.4205 235.557 59.2543 236.352 58.9219 237.023C58.5895 237.693 58.1335 238.21 57.554 238.574C56.9744 238.938 56.3125 239.119 55.5682 239.119C54.8239 239.119 54.1619 238.938 53.5824 238.574C53.0028 238.21 52.5469 237.693 52.2145 237.023C51.8821 236.352 51.7159 235.557 51.7159 234.636C51.7159 233.716 51.8821 232.92 52.2145 232.25C52.5469 231.58 53.0028 231.062 53.5824 230.699C54.1619 230.335 54.8239 230.153 55.5682 230.153C56.3125 230.153 56.9744 230.335 57.554 230.699C58.1335 231.062 58.5895 231.58 58.9219 232.25C59.2543 232.92 59.4205 233.716 59.4205 234.636ZM58.3977 234.636C58.3977 233.881 58.2713 233.243 58.0185 232.723C57.7685 232.203 57.429 231.81 57 231.543C56.5739 231.276 56.0966 231.142 55.5682 231.142C55.0398 231.142 54.5611 231.276 54.1321 231.543C53.706 231.81 53.3665 232.203 53.1136 232.723C52.8636 233.243 52.7386 233.881 52.7386 234.636C52.7386 235.392 52.8636 236.03 53.1136 236.55C53.3665 237.07 53.706 237.463 54.1321 237.73C54.5611 237.997 55.0398 238.131 55.5682 238.131C56.0966 238.131 56.5739 237.997 57 237.73C57.429 237.463 57.7685 237.07 58.0185 236.55C58.2713 236.03 58.3977 235.392 58.3977 234.636ZM62.544 239L60.5497 232.455H61.6065L63.0213 237.466H63.0895L64.4872 232.455H65.5611L66.9418 237.449H67.0099L68.4247 232.455H69.4815L67.4872 239H66.4986L65.0668 233.972H64.9645L63.5327 239H62.544ZM71.8168 235.062V239H70.8111V232.455H71.7827V233.477H71.8679C72.0213 233.145 72.2543 232.878 72.5668 232.676C72.8793 232.472 73.2827 232.369 73.777 232.369C74.2202 232.369 74.608 232.46 74.9403 232.642C75.2727 232.821 75.5313 233.094 75.7159 233.46C75.9006 233.824 75.9929 234.284 75.9929 234.841V239H74.9872V234.909C74.9872 234.395 74.8537 233.994 74.5866 233.707C74.3196 233.418 73.9531 233.273 73.4872 233.273C73.1662 233.273 72.8793 233.342 72.6264 233.482C72.3764 233.621 72.179 233.824 72.0341 234.091C71.8892 234.358 71.8168 234.682 71.8168 235.062ZM88.3647 233H87.3079C87.2454 232.696 87.136 232.429 86.9798 232.199C86.8263 231.969 86.6388 231.776 86.4173 231.619C86.1985 231.46 85.9556 231.341 85.6886 231.261C85.4215 231.182 85.1431 231.142 84.8533 231.142C84.3249 231.142 83.8462 231.276 83.4173 231.543C82.9911 231.81 82.6516 232.203 82.3988 232.723C82.1488 233.243 82.0238 233.881 82.0238 234.636C82.0238 235.392 82.1488 236.03 82.3988 236.55C82.6516 237.07 82.9911 237.463 83.4173 237.73C83.8462 237.997 84.3249 238.131 84.8533 238.131C85.1431 238.131 85.4215 238.091 85.6886 238.011C85.9556 237.932 86.1985 237.814 86.4173 237.658C86.6388 237.499 86.8263 237.304 86.9798 237.074C87.136 236.841 87.2454 236.574 87.3079 236.273H88.3647C88.2852 236.719 88.1403 237.118 87.93 237.47C87.7198 237.822 87.4585 238.122 87.146 238.369C86.8335 238.614 86.4826 238.8 86.0934 238.928C85.707 239.055 85.2937 239.119 84.8533 239.119C84.109 239.119 83.4471 238.938 82.8675 238.574C82.288 238.21 81.832 237.693 81.4996 237.023C81.1673 236.352 81.0011 235.557 81.0011 234.636C81.0011 233.716 81.1673 232.92 81.4996 232.25C81.832 231.58 82.288 231.062 82.8675 230.699C83.4471 230.335 84.109 230.153 84.8533 230.153C85.2937 230.153 85.707 230.217 86.0934 230.345C86.4826 230.473 86.8335 230.661 87.146 230.908C87.4585 231.152 87.7198 231.45 87.93 231.803C88.1403 232.152 88.2852 232.551 88.3647 233ZM92.5952 239.136C92.0043 239.136 91.4858 238.996 91.0398 238.714C90.5966 238.433 90.25 238.04 90 237.534C89.7528 237.028 89.6293 236.437 89.6293 235.761C89.6293 235.08 89.7528 234.484 90 233.976C90.25 233.467 90.5966 233.072 91.0398 232.791C91.4858 232.51 92.0043 232.369 92.5952 232.369C93.1861 232.369 93.7031 232.51 94.1463 232.791C94.5923 233.072 94.9389 233.467 95.1861 233.976C95.4361 234.484 95.5611 235.08 95.5611 235.761C95.5611 236.437 95.4361 237.028 95.1861 237.534C94.9389 238.04 94.5923 238.433 94.1463 238.714C93.7031 238.996 93.1861 239.136 92.5952 239.136ZM92.5952 238.233C93.044 238.233 93.4134 238.118 93.7031 237.888C93.9929 237.658 94.2074 237.355 94.3466 236.98C94.4858 236.605 94.5554 236.199 94.5554 235.761C94.5554 235.324 94.4858 234.916 94.3466 234.538C94.2074 234.161 93.9929 233.855 93.7031 233.622C93.4134 233.389 93.044 233.273 92.5952 233.273C92.1463 233.273 91.777 233.389 91.4872 233.622C91.1974 233.855 90.983 234.161 90.8438 234.538C90.7045 234.916 90.6349 235.324 90.6349 235.761C90.6349 236.199 90.7045 236.605 90.8438 236.98C90.983 237.355 91.1974 237.658 91.4872 237.888C91.777 238.118 92.1463 238.233 92.5952 238.233ZM101.221 236.324V232.455H102.227V239H101.221V237.892H101.153C101 238.224 100.761 238.507 100.437 238.74C100.113 238.97 99.7042 239.085 99.2099 239.085C98.8008 239.085 98.4371 238.996 98.119 238.817C97.8008 238.635 97.5508 238.362 97.369 237.999C97.1871 237.632 97.0962 237.17 97.0962 236.614V232.455H98.1019V236.545C98.1019 237.023 98.2354 237.403 98.5025 237.688C98.7724 237.972 99.1161 238.114 99.5337 238.114C99.7837 238.114 100.038 238.05 100.297 237.922C100.558 237.794 100.777 237.598 100.953 237.334C101.132 237.07 101.221 236.733 101.221 236.324ZM105.075 235.062V239H104.069V232.455H105.04V233.477H105.126C105.279 233.145 105.512 232.878 105.825 232.676C106.137 232.472 106.54 232.369 107.035 232.369C107.478 232.369 107.866 232.46 108.198 232.642C108.531 232.821 108.789 233.094 108.974 233.46C109.158 233.824 109.251 234.284 109.251 234.841V239H108.245V234.909C108.245 234.395 108.112 233.994 107.844 233.707C107.577 233.418 107.211 233.273 106.745 233.273C106.424 233.273 106.137 233.342 105.884 233.482C105.634 233.621 105.437 233.824 105.292 234.091C105.147 234.358 105.075 234.682 105.075 235.062ZM113.935 232.455V233.307H110.543V232.455H113.935ZM111.532 230.886H112.537V237.125C112.537 237.409 112.578 237.622 112.661 237.764C112.746 237.903 112.854 237.997 112.985 238.045C113.118 238.091 113.259 238.114 113.407 238.114C113.517 238.114 113.608 238.108 113.679 238.097C113.75 238.082 113.807 238.071 113.85 238.062L114.054 238.966C113.986 238.991 113.891 239.017 113.769 239.043C113.647 239.071 113.492 239.085 113.304 239.085C113.02 239.085 112.742 239.024 112.469 238.902C112.199 238.78 111.975 238.594 111.796 238.344C111.62 238.094 111.532 237.778 111.532 237.398V230.886ZM115.448 239V232.455H116.419V233.443H116.488C116.607 233.119 116.823 232.857 117.135 232.655C117.448 232.453 117.8 232.352 118.192 232.352C118.266 232.352 118.358 232.354 118.469 232.357C118.58 232.359 118.664 232.364 118.721 232.369V233.392C118.686 233.384 118.608 233.371 118.486 233.354C118.367 233.334 118.24 233.324 118.107 233.324C117.789 233.324 117.505 233.391 117.255 233.524C117.007 233.655 116.811 233.837 116.667 234.07C116.525 234.3 116.453 234.562 116.453 234.858V239H115.448ZM120.76 241.455C120.589 241.455 120.437 241.44 120.304 241.412C120.17 241.386 120.078 241.361 120.027 241.335L120.282 240.449C120.527 240.511 120.743 240.534 120.93 240.517C121.118 240.5 121.284 240.416 121.429 240.266C121.576 240.118 121.711 239.878 121.833 239.545L122.021 239.034L119.6 232.455H120.691L122.498 237.67H122.566L124.373 232.455H125.464L122.686 239.955C122.561 240.293 122.406 240.572 122.221 240.794C122.037 241.018 121.822 241.185 121.578 241.293C121.336 241.401 121.064 241.455 120.76 241.455Z" fill="black"/>
</svg>
