<?xml version="1.0" encoding="utf-8"?>
<!-- Generator: Adobe Illustrator 25.0.0, SVG Export Plug-In . SVG Version: 6.00 Build 0)  -->
<svg version="1.1" id="Layer_1" xmlns="http://www.w3.org/2000/svg" xmlns:xlink="http://www.w3.org/1999/xlink" x="0px" y="0px"
	 viewBox="0 0 566.93 566.93" style="enable-background:new 0 0 566.93 566.93;" xml:space="preserve">
<style type="text/css">
	.st0{fill:#020202;}
	.st1{fill:#030303;}
	.st2{fill:#010101;}
	.st3{fill:#050505;}
	.st4{fill:#040404;}
	.st5{fill:#FEFEFE;}
</style>
<g>
	<path class="st0" d="M281.6,393.54c-11.17,0-22.35-0.05-33.52,0.02c-4.11,0.03-6.86-1.15-7.09-5.86
		c-1.17-24.09-10.33-45.34-23.12-65.37c-9.26-14.5-18.04-29.2-21.67-46.44c-10.19-48.39,23.88-96.05,73.14-101.94
		c45.08-5.38,85.4,20.54,96.84,62.65c6.75,24.87,1.53,48.07-11.09,69.99c-8.3,14.42-18.02,28.03-24.32,43.58
		c-4.78,11.78-7.47,24.02-8.24,36.66c-0.31,5.02-2.61,6.81-7.4,6.74C303.95,393.45,292.77,393.54,281.6,393.54z"/>
	<path class="st1" d="M281.43,411.31c-10.44,0-20.88-0.04-31.31,0.02c-3.59,0.02-6.59-0.89-6.71-4.99
		c-0.12-4.16,2.92-5.25,6.47-5.26c21.23-0.02,42.46-0.03,63.69-0.02c3.55,0,6.58,1.13,6.44,5.3c-0.14,4.11-3.15,4.99-6.73,4.97
		C302.65,411.27,292.04,411.31,281.43,411.31z"/>
	<path class="st1" d="M282.12,418.81c9.38,0,18.77,0.03,28.15-0.02c3.53-0.02,6.64,0.74,6.79,4.91c0.15,4.51-3.07,5.43-6.83,5.42
		c-18.94-0.02-37.89-0.02-56.83,0c-3.69,0-7.07-0.67-7.05-5.21c0.02-4.54,3.4-5.15,7.09-5.13
		C263,418.84,272.56,418.81,282.12,418.81z"/>
	<path class="st2" d="M281.5,446.65c-5.13,0-10.26-0.02-15.39,0.01c-3.37,0.02-5.58-1.54-5.63-4.93c-0.06-3.42,2.14-5.04,5.5-5.04
		c10.44-0.01,20.87,0,31.31-0.01c3.33,0,5.61,1.48,5.63,4.92c0.02,3.38-2.11,5.06-5.5,5.06
		C292.11,446.65,286.81,446.65,281.5,446.65z"/>
	<path class="st3" d="M286.85,140.29c0,3.89,0.05,7.79-0.01,11.68c-0.06,3.46-1.55,5.98-5.31,5.9c-3.44-0.08-4.93-2.49-4.96-5.71
		c-0.06-7.96-0.07-15.93,0.01-23.89c0.03-3.22,1.51-5.57,5.03-5.6c3.82-0.03,5.19,2.5,5.23,5.94
		C286.89,132.51,286.85,136.4,286.85,140.29z"/>
	<path class="st4" d="M158.7,268.28c-3.89,0-7.78,0.11-11.67-0.03c-3.4-0.12-5.97-1.62-5.8-5.42c0.16-3.44,2.53-4.83,5.79-4.83
		c7.96-0.01,15.91-0.03,23.87,0.04c3.26,0.03,5.52,1.54,5.54,5.05c0.02,3.55-2.37,5-5.53,5.12c-4.06,0.16-8.13,0.04-12.2,0.04
		C158.7,268.25,158.7,268.27,158.7,268.28z"/>
	<path class="st4" d="M404.53,268.26c-3.89,0-7.78,0.09-11.67-0.03c-3.39-0.1-5.99-1.48-5.89-5.32c0.09-3.5,2.46-4.88,5.7-4.89
		c7.96-0.04,15.91-0.05,23.87-0.01c3.27,0.02,5.54,1.53,5.63,4.99c0.09,3.51-2.27,5.08-5.44,5.22
		C412.67,268.4,408.59,268.26,404.53,268.26z"/>
	<path class="st4" d="M378.37,213.14c-3.32-0.09-5.06-1.19-5.92-3.36c-0.89-2.22-0.39-4.5,1.6-5.69
		c7.74-4.64,15.58-9.13,23.49-13.48c2.15-1.19,4.14-0.03,5.57,1.8c1.36,1.73,1.72,4.1,0.22,5.39
		C395.64,204.45,386.14,208.13,378.37,213.14z"/>
	<path class="st4" d="M164.43,335.82c-2.22,0.12-3.73-0.97-4.63-2.89c-1.03-2.18-0.78-4.51,1.21-5.72
		c7.86-4.76,15.79-9.4,23.89-13.73c2.14-1.14,4.57,0.02,5.81,2.39c1.11,2.11,0.98,4.55-0.92,5.81c-7.81,5.16-15.89,9.89-24.31,14.01
		C165.18,335.83,164.78,335.78,164.43,335.82z"/>
	<path class="st1" d="M404.09,330.66c0.12,3.91-3.68,6.54-7.43,4.55c-7.5-3.97-14.8-8.32-22.07-12.7c-2.63-1.58-3.32-4.17-1.73-6.9
		c1.47-2.52,4.06-3.22,6.45-1.91c7.6,4.16,15.04,8.6,22.51,12.98C403.28,327.54,404.06,328.93,404.09,330.66z"/>
	<path class="st1" d="M231.64,167.34c0.02,2.36-1.03,4.14-3.2,5.03c-2.2,0.9-4.45,0.49-5.67-1.54c-4.56-7.57-9.04-15.2-13.29-22.95
		c-1.32-2.41-0.55-4.99,1.95-6.45c2.21-1.29,4.94-1.16,6.24,0.98c4.8,7.84,9.23,15.9,13.78,23.88
		C231.62,166.58,231.58,166.98,231.64,167.34z"/>
	<path class="st1" d="M354.41,146.64c-0.36,0.81-0.84,2.13-1.53,3.34c-3.59,6.3-7.23,12.57-10.85,18.86
		c-1.76,3.06-4.04,5.3-7.7,3.13c-3.54-2.11-2.99-5.14-1.16-8.27c3.94-6.71,7.79-13.47,11.7-20.2c1.45-2.5,3.68-3.28,6.34-2.41
		C353.52,141.84,354.4,143.72,354.41,146.64z"/>
	<path class="st4" d="M191.3,208.09c-0.07,3.65-3.76,6.18-7.16,4.37c-7.65-4.09-15.11-8.53-22.55-12.99
		c-2.46-1.47-3.05-3.97-1.63-6.48c1.52-2.67,3.99-3.63,6.79-2.06c7.41,4.16,14.75,8.45,22.08,12.74
		C190.46,204.63,191.32,206.14,191.3,208.09z"/>
	<path class="st5" d="M281.57,383.45c-8.87,0-17.74-0.07-26.61,0.04c-2.66,0.03-4.14-0.38-4.45-3.59
		c-2.39-24.49-12.91-45.81-25.95-66.17c-8.04-12.56-15.62-25.43-18.44-40.38c-7.77-41.25,17.08-78.61,58.57-88.17
		c42.6-9.81,85.16,17.67,93.03,60.41c3.6,19.51-1.08,37.69-10.86,54.65c-5.58,9.67-11.55,19.12-17.09,28.81
		c-8.62,15.07-14.64,31.11-16.45,48.48c-0.47,4.53-1.88,6.3-6.74,6.03C298.26,383.12,289.91,383.45,281.57,383.45z"/>
	<path class="st2" d="M280.42,312.45c-4.92,1.3-6.81-1.47-6.88-6.85c-0.03-2.36,0.84-5.67-1.24-7.01c-3.52-2.25-7.54-4.1-11.6-4.97
		c-2.5-0.54-4.53,2.54-6.22,4.44c-4.11,4.6-6.94,2.61-10.38-0.94c-3.27-3.37-5.98-6.07-1.32-10.4c1.87-1.74,5.03-3.72,4.57-6.16
		c-0.77-4.07-2.6-8.11-4.76-11.7c-1.51-2.5-4.93-0.92-7.44-1.48c-2.28-0.51-5.69,0.57-6.28-2.6c-0.73-3.93-1.53-8.36,0.54-11.93
		c1.51-2.61,5.3-1.67,7.96-1.64c4.47,0.04,6.31-2.04,7.06-6.03c0.7-3.7,5.18-6.62,0.59-11.23c-6.68-6.72-6.15-6.95,0.31-13.69
		c3.02-3.14,5.31-3.34,8.41-0.32c1.99,1.94,4.02,5.29,6.59,4.91c4.08-0.6,8.11-2.49,11.77-4.55c2.39-1.35,1.12-4.56,1.42-6.92
		c0.83-6.61,8.31-10.44,14.15-6.9c2.92,1.77,1.53,5.19,2.29,7.8c0.7,2.42-1.26,6.09,3.18,6.72c4.94,0.7,9.53,7.41,14.97,0.57
		c1.51-1.89,3.64-4.99,6.44-3.8c3.71,1.58,6.58,4.86,8.59,8.36c1.41,2.46-1.48,4-2.73,5.82c-1.48,2.15-4.92,3.78-4.38,6.3
		c0.86,4.06,2.52,8.28,4.99,11.57c1.69,2.24,5.65,1.44,8.58,1.51c4.15,0.09,5.83,1.84,5.35,5.9c-0.12,1.05-0.15,2.15,0,3.19
		c0.75,5.09-1.54,7.04-6.52,7.05c-2.54,0.01-6.02-1.07-7.51,1.27c-2.24,3.52-3.98,7.6-4.85,11.67c-0.55,2.6,2.81,4.22,4.42,6.24
		c4.06,5.11,3.95,4.86-1.84,11.09c-3.38,3.64-6.03,4.19-9.59,0.43c-1.77-1.87-3.78-5-6.19-4.53c-4.06,0.78-7.99,2.77-11.68,4.8
		c-2.07,1.14-1.03,3.91-1.24,5.93C289.1,312.46,289.16,312.47,280.42,312.45z"/>
	<path class="st5" d="M281.71,282.5c-12.87,0-23.32-10.46-23.28-23.33c0.03-12.7,10.87-23.39,23.53-23.19
		c12.58,0.2,22.97,10.66,23.02,23.17C305.02,272.02,294.58,282.49,281.71,282.5z"/>
</g>
</svg>
