<svg width="639" height="356" viewBox="0 0 639 356" fill="none" xmlns="http://www.w3.org/2000/svg">
<ellipse cx="58" cy="91.5" rx="28" ry="27.5" fill="#171717"/>
<circle cx="181" cy="50" r="50" fill="black"/>
<path d="M202.785 220.854C192.525 235.103 171.383 235.295 160.866 221.236L110.56 153.989C97.7998 136.932 109.841 112.61 131.142 112.416L230.52 111.51C251.821 111.316 264.303 135.415 251.856 152.701L202.785 220.854Z" fill="black"/>
<rect x="106" y="137" width="151" height="98" fill="#030303"/>
<path d="M1 235H91L86.746 205.526C84.6859 191.252 84.5774 176.764 86.4234 162.461L91 127L54.1103 138.91C38.8801 143.827 26.924 155.737 21.949 170.948L1 235Z" fill="black" stroke="black"/>
<ellipse cx="318.5" cy="91.5" rx="24.5" ry="27.5" fill="#171717"/>
<path d="M278 235H360L355.239 183.902C353.388 164.044 339.914 147.185 320.953 141.003L278 127L282.525 145.442C288.345 169.163 288.285 193.947 282.349 217.64L278 235Z" fill="black" stroke="black"/>
<path d="M449.801 332L482.33 267.653V267.085H444.83V259.273H491.42V267.511L459.034 332H449.801ZM526.408 332.994C522.241 332.994 518.489 332.166 515.151 330.509C511.813 328.851 509.138 326.579 507.125 323.69C505.113 320.802 504.012 317.511 503.823 313.818H512.346C512.677 317.109 514.168 319.831 516.82 321.986C519.495 324.116 522.691 325.182 526.408 325.182C529.391 325.182 532.042 324.483 534.363 323.087C536.706 321.69 538.541 319.772 539.867 317.334C541.216 314.872 541.891 312.09 541.891 308.989C541.891 305.816 541.193 302.987 539.796 300.501C538.423 297.992 536.529 296.015 534.114 294.571C531.699 293.127 528.941 292.393 525.84 292.369C523.614 292.346 521.33 292.689 518.986 293.399C516.642 294.086 514.713 294.973 513.198 296.062L504.959 295.068L509.363 259.273H547.147V267.085H516.749L514.192 288.534H514.618C516.11 287.35 517.98 286.368 520.229 285.587C522.478 284.805 524.822 284.415 527.26 284.415C531.711 284.415 535.676 285.48 539.157 287.611C542.66 289.718 545.407 292.606 547.395 296.276C549.408 299.945 550.414 304.135 550.414 308.847C550.414 313.487 549.372 317.63 547.289 321.276C545.229 324.898 542.388 327.762 538.766 329.869C535.144 331.953 531.025 332.994 526.408 332.994ZM601.594 318.364V314.528C601.594 311.877 602.139 309.45 603.228 307.249C604.341 305.023 605.951 303.248 608.058 301.922C610.188 300.572 612.769 299.898 615.799 299.898C618.877 299.898 621.457 300.572 623.54 301.922C625.624 303.248 627.198 305.023 628.263 307.249C629.329 309.45 629.862 311.877 629.862 314.528V318.364C629.862 321.015 629.317 323.454 628.228 325.679C627.163 327.881 625.576 329.656 623.469 331.006C621.386 332.331 618.829 332.994 615.799 332.994C612.721 332.994 610.129 332.331 608.022 331.006C605.915 329.656 604.317 327.881 603.228 325.679C602.139 323.454 601.594 321.015 601.594 318.364ZM608.839 314.528V318.364C608.839 320.565 609.36 322.542 610.401 324.294C611.443 326.022 613.242 326.886 615.799 326.886C618.285 326.886 620.037 326.022 621.055 324.294C622.096 322.542 622.617 320.565 622.617 318.364V314.528C622.617 312.327 622.12 310.362 621.126 308.634C620.131 306.882 618.356 306.006 615.799 306.006C613.313 306.006 611.526 306.882 610.437 308.634C609.371 310.362 608.839 312.327 608.839 314.528ZM565.373 276.744V272.909C565.373 270.258 565.917 267.831 567.006 265.629C568.119 263.404 569.729 261.628 571.836 260.303C573.967 258.953 576.547 258.278 579.577 258.278C582.655 258.278 585.236 258.953 587.319 260.303C589.402 261.628 590.977 263.404 592.042 265.629C593.107 267.831 593.64 270.258 593.64 272.909V276.744C593.64 279.396 593.095 281.834 592.006 284.06C590.941 286.261 589.355 288.037 587.248 289.386C585.165 290.712 582.608 291.375 579.577 291.375C576.5 291.375 573.907 290.712 571.8 289.386C569.693 288.037 568.095 286.261 567.006 284.06C565.917 281.834 565.373 279.396 565.373 276.744ZM572.617 272.909V276.744C572.617 278.946 573.138 280.923 574.18 282.675C575.221 284.403 577.021 285.267 579.577 285.267C582.063 285.267 583.815 284.403 584.833 282.675C585.875 280.923 586.396 278.946 586.396 276.744V272.909C586.396 270.707 585.898 268.742 584.904 267.014C583.91 265.262 582.134 264.386 579.577 264.386C577.092 264.386 575.304 265.262 574.215 267.014C573.15 268.742 572.617 270.707 572.617 272.909ZM568.072 332L618.072 259.273H626.168L576.168 332H568.072Z" fill="#FF0D0D"/>
</svg>
