<svg width="273" height="179" viewBox="0 0 273 179" fill="none" xmlns="http://www.w3.org/2000/svg">
<ellipse cx="50.5" cy="16.5" rx="18.5" ry="16.5" fill="black"/>
<rect x="38" y="108" width="25" height="42" fill="#010101"/>
<path d="M10 178.5H111L170.5 108.5L190.5 128.5L272.5 37.5M272.5 37.5H245.5M272.5 37.5V62" stroke="black"/>
<path d="M166.274 42.8182V61H164.072V45.1264H163.966L159.527 48.0739V45.8366L164.072 42.8182H166.274ZM177.185 61.2486C176.143 61.2486 175.205 61.0414 174.371 60.6271C173.536 60.2128 172.867 59.6446 172.364 58.9226C171.861 58.2005 171.586 57.3778 171.539 56.4545H173.669C173.752 57.2772 174.125 57.9579 174.788 58.4964C175.457 59.0291 176.256 59.2955 177.185 59.2955C177.931 59.2955 178.594 59.1209 179.174 58.7717C179.76 58.4225 180.218 57.9431 180.55 57.3335C180.887 56.7179 181.056 56.0225 181.056 55.2472C181.056 54.4541 180.881 53.7468 180.532 53.1254C180.189 52.498 179.715 52.0038 179.112 51.6428C178.508 51.2817 177.818 51.0982 177.043 51.0923C176.487 51.0864 175.915 51.1722 175.33 51.3498C174.744 51.5214 174.261 51.7434 173.882 52.0156L171.823 51.767L172.924 42.8182H182.37V44.7713H174.77L174.131 50.1335H174.238C174.61 49.8376 175.078 49.592 175.64 49.3967C176.203 49.2013 176.788 49.1037 177.398 49.1037C178.511 49.1037 179.502 49.37 180.372 49.9027C181.248 50.4295 181.935 51.1515 182.432 52.0689C182.935 52.9863 183.186 54.0339 183.186 55.2116C183.186 56.3717 182.926 57.4074 182.405 58.3189C181.89 59.2244 181.18 59.9406 180.275 60.4673C179.369 60.9882 178.339 61.2486 177.185 61.2486ZM195.982 57.5909V56.6321C195.982 55.9692 196.118 55.3626 196.39 54.8121C196.668 54.2558 197.071 53.8119 197.597 53.4805C198.13 53.1431 198.775 52.9744 199.533 52.9744C200.302 52.9744 200.947 53.1431 201.468 53.4805C201.989 53.8119 202.383 54.2558 202.649 54.8121C202.915 55.3626 203.048 55.9692 203.048 56.6321V57.5909C203.048 58.2538 202.912 58.8634 202.64 59.4197C202.374 59.9702 201.977 60.4141 201.45 60.7514C200.93 61.0829 200.29 61.2486 199.533 61.2486C198.763 61.2486 198.115 61.0829 197.589 60.7514C197.062 60.4141 196.662 59.9702 196.39 59.4197C196.118 58.8634 195.982 58.2538 195.982 57.5909ZM197.793 56.6321V57.5909C197.793 58.1413 197.923 58.6355 198.183 59.0735C198.444 59.5056 198.894 59.7216 199.533 59.7216C200.154 59.7216 200.592 59.5056 200.847 59.0735C201.107 58.6355 201.237 58.1413 201.237 57.5909V56.6321C201.237 56.0817 201.113 55.5904 200.864 55.1584C200.616 54.7204 200.172 54.5014 199.533 54.5014C198.911 54.5014 198.464 54.7204 198.192 55.1584C197.926 55.5904 197.793 56.0817 197.793 56.6321ZM186.926 47.1861V46.2273C186.926 45.5644 187.062 44.9577 187.335 44.4073C187.613 43.851 188.015 43.4071 188.542 43.0756C189.075 42.7383 189.72 42.5696 190.477 42.5696C191.247 42.5696 191.892 42.7383 192.413 43.0756C192.934 43.4071 193.327 43.851 193.593 44.4073C193.86 44.9577 193.993 45.5644 193.993 46.2273V47.1861C193.993 47.849 193.857 48.4586 193.585 49.0149C193.318 49.5653 192.922 50.0092 192.395 50.3466C191.874 50.678 191.235 50.8438 190.477 50.8438C189.708 50.8438 189.06 50.678 188.533 50.3466C188.006 50.0092 187.607 49.5653 187.335 49.0149C187.062 48.4586 186.926 47.849 186.926 47.1861ZM188.737 46.2273V47.1861C188.737 47.7365 188.868 48.2307 189.128 48.6687C189.388 49.1007 189.838 49.3168 190.477 49.3168C191.099 49.3168 191.537 49.1007 191.791 48.6687C192.052 48.2307 192.182 47.7365 192.182 47.1861V46.2273C192.182 45.6768 192.058 45.1856 191.809 44.7536C191.56 44.3156 191.117 44.0966 190.477 44.0966C189.856 44.0966 189.409 44.3156 189.137 44.7536C188.87 45.1856 188.737 45.6768 188.737 46.2273ZM187.601 61L200.101 42.8182H202.125L189.625 61H187.601Z" fill="#F71414"/>
<path d="M44.8038 42C47.1132 38 52.8868 38 55.1962 42L88.1051 99C90.4145 103 87.5278 108 82.909 108H17.091C12.4722 108 9.58548 103 11.8949 99L44.8038 42Z" fill="#0C0C0C"/>
</svg>
